<?xml version="1.0" encoding="UTF-8" standalone="no"?>
<!-- Created with Inkscape (http://www.inkscape.org/) -->

<svg
   width="300mm"
   height="61.678959mm"
   viewBox="0 0 300 61.678958"
   version="1.1"
   id="svg4731"
   inkscape:version="1.2.1 (9c6d41e4, 2022-07-14)"
   sodipodi:docname="logo_white.svg"
   xmlns:inkscape="http://www.inkscape.org/namespaces/inkscape"
   xmlns:sodipodi="http://sodipodi.sourceforge.net/DTD/sodipodi-0.dtd"
   xmlns:xlink="http://www.w3.org/1999/xlink"
   xmlns="http://www.w3.org/2000/svg"
   xmlns:svg="http://www.w3.org/2000/svg">
  <sodipodi:namedview
     id="namedview4733"
     pagecolor="#7d7d7d"
     bordercolor="#666666"
     borderopacity="1.0"
     inkscape:showpageshadow="2"
     inkscape:pageopacity="0"
     inkscape:pagecheckerboard="0"
     inkscape:deskcolor="#d1d1d1"
     inkscape:document-units="mm"
     showgrid="false"
     inkscape:zoom="0.65407691"
     inkscape:cx="624.5443"
     inkscape:cy="103.96331"
     inkscape:window-width="1344"
     inkscape:window-height="456"
     inkscape:window-x="0"
     inkscape:window-y="23"
     inkscape:window-maximized="0"
     inkscape:current-layer="layer1" />
  <defs
     id="defs4728">
    <linearGradient
       inkscape:collect="always"
       xlink:href="#linearGradient1379"
       id="linearGradient2241"
       gradientUnits="userSpaceOnUse"
       gradientTransform="translate(-0.28626548,23.012487)"
       x1="43.352928"
       y1="34.674362"
       x2="49.0868"
       y2="34.674362" />
    <linearGradient
       inkscape:collect="always"
       id="linearGradient1379">
      <stop
         style="stop-color:#0095ff;stop-opacity:1;"
         offset="0.09045226"
         id="stop1375" />
      <stop
         style="stop-color:#a800ff;stop-opacity:1;"
         offset="0.78643215"
         id="stop1377" />
    </linearGradient>
    <linearGradient
       inkscape:collect="always"
       xlink:href="#linearGradient1379"
       id="linearGradient2275"
       gradientUnits="userSpaceOnUse"
       x1="40.216984"
       y1="245.31812"
       x2="450.42218"
       y2="245.31812" />
    <linearGradient
       inkscape:collect="always"
       xlink:href="#linearGradient1379"
       id="linearGradient5446"
       gradientUnits="userSpaceOnUse"
       x1="40.216984"
       y1="245.31812"
       x2="450.42218"
       y2="245.31812" />
    <linearGradient
       inkscape:collect="always"
       xlink:href="#linearGradient1379"
       id="linearGradient5448"
       gradientUnits="userSpaceOnUse"
       x1="40.216984"
       y1="245.31812"
       x2="450.42218"
       y2="245.31812" />
    <linearGradient
       inkscape:collect="always"
       xlink:href="#linearGradient1379"
       id="linearGradient5450"
       gradientUnits="userSpaceOnUse"
       x1="40.216984"
       y1="245.31812"
       x2="450.42218"
       y2="245.31812" />
    <linearGradient
       inkscape:collect="always"
       xlink:href="#linearGradient1379"
       id="linearGradient5452"
       gradientUnits="userSpaceOnUse"
       x1="40.216984"
       y1="245.31812"
       x2="450.42218"
       y2="245.31812" />
    <linearGradient
       inkscape:collect="always"
       xlink:href="#linearGradient1379"
       id="linearGradient5454"
       gradientUnits="userSpaceOnUse"
       x1="40.216984"
       y1="245.31812"
       x2="450.42218"
       y2="245.31812" />
    <linearGradient
       inkscape:collect="always"
       xlink:href="#linearGradient1379"
       id="linearGradient5456"
       gradientUnits="userSpaceOnUse"
       x1="40.216984"
       y1="245.31812"
       x2="450.42218"
       y2="245.31812" />
    <linearGradient
       inkscape:collect="always"
       xlink:href="#linearGradient1379"
       id="linearGradient5458"
       gradientUnits="userSpaceOnUse"
       x1="40.216984"
       y1="245.31812"
       x2="450.42218"
       y2="245.31812" />
    <linearGradient
       inkscape:collect="always"
       xlink:href="#linearGradient1379"
       id="linearGradient5460"
       gradientUnits="userSpaceOnUse"
       x1="40.216984"
       y1="245.31812"
       x2="450.42218"
       y2="245.31812" />
    <linearGradient
       inkscape:collect="always"
       xlink:href="#linearGradient1379"
       id="linearGradient5462"
       gradientUnits="userSpaceOnUse"
       x1="40.216984"
       y1="245.31812"
       x2="450.42218"
       y2="245.31812" />
    <linearGradient
       inkscape:collect="always"
       xlink:href="#linearGradient1379"
       id="linearGradient5464"
       gradientUnits="userSpaceOnUse"
       x1="40.216984"
       y1="245.31812"
       x2="450.42218"
       y2="245.31812" />
    <linearGradient
       inkscape:collect="always"
       xlink:href="#linearGradient1379"
       id="linearGradient5466"
       gradientUnits="userSpaceOnUse"
       x1="40.216984"
       y1="245.31812"
       x2="450.42218"
       y2="245.31812" />
    <linearGradient
       inkscape:collect="always"
       xlink:href="#linearGradient1379"
       id="linearGradient5468"
       gradientUnits="userSpaceOnUse"
       x1="40.216984"
       y1="245.31812"
       x2="450.42218"
       y2="245.31812" />
    <linearGradient
       inkscape:collect="always"
       xlink:href="#linearGradient1379"
       id="linearGradient5470"
       gradientUnits="userSpaceOnUse"
       x1="40.216984"
       y1="245.31812"
       x2="450.42218"
       y2="245.31812" />
    <linearGradient
       inkscape:collect="always"
       xlink:href="#linearGradient1379"
       id="linearGradient5472"
       gradientUnits="userSpaceOnUse"
       x1="40.216984"
       y1="245.31812"
       x2="450.42218"
       y2="245.31812" />
    <linearGradient
       inkscape:collect="always"
       xlink:href="#linearGradient1379"
       id="linearGradient5474"
       gradientUnits="userSpaceOnUse"
       x1="40.216984"
       y1="245.31812"
       x2="450.42218"
       y2="245.31812" />
    <linearGradient
       inkscape:collect="always"
       xlink:href="#linearGradient1379"
       id="linearGradient5476"
       gradientUnits="userSpaceOnUse"
       x1="40.216984"
       y1="245.31812"
       x2="450.42218"
       y2="245.31812" />
  </defs>
  <g
     inkscape:label="Ebene 1"
     inkscape:groupmode="layer"
     id="layer1"
     transform="translate(-572.96502,-237.59635)">
    <g
       id="g15464"
       transform="matrix(11.124097,0,0,11.124097,-5800.7522,-2405.4482)">
      <g
         id="g2143"
         transform="matrix(0.26458333,0,0,0.26458333,586.98893,233.5228)">
        <rect
           style="fill:url(#linearGradient2241);fill-opacity:1;stroke:none;stroke-width:2.00763;stroke-linecap:round;stroke-linejoin:round"
           id="rect2105"
           width="5.7338729"
           height="5.2795238"
           x="43.066662"
           y="55.047085"
           rx="0"
           ry="1.2718923"
           transform="matrix(0.81781913,-0.57547535,0,1,0,0)" />
        <path
           d="m 40.447491,24.41168 -4.737,-2.81 a 1.785,1.785 0 0 0 -1.82,0 l -4.735,2.81 a 1.889,1.889 0 0 0 -0.921,1.628 v 5.624 a 1.889,1.889 0 0 0 0.913,1.627 l 4.736,2.812 a 1.785,1.785 0 0 0 1.82,0 l 4.736,-2.812 a 1.888,1.888 0 0 0 0.913,-1.627 v -5.624 a 1.889,1.889 0 0 0 -0.904,-1.627 z m -3.669,8.781 v 0.404 a 0.149,0.149 0 0 1 -0.07,0.124 l -0.239,0.137 c -0.038,0.02 -0.07,0 -0.07,-0.053 v -0.396 a 0.78,0.78 0 0 1 -0.545,0.053 0.073,0.073 0 0 1 -0.027,-0.09 l 0.086,-0.365 a 0.153,0.153 0 0 1 0.071,-0.096 0.048,0.048 0 0 1 0.038,0 0.662,0.662 0 0 0 0.497,-0.063 0.662,0.662 0 0 0 0.37,-0.567 c 0,-0.206 -0.112,-0.292 -0.384,-0.293 -0.344,0 -0.661,-0.066 -0.67,-0.574 a 1.47,1.47 0 0 1 0.557,-1.125 v -0.407 a 0.147,0.147 0 0 1 0.07,-0.126 l 0.231,-0.147 c 0.038,-0.02 0.07,0 0.07,0.054 v 0.409 a 0.754,0.754 0 0 1 0.453,-0.055 0.073,0.073 0 0 1 0.03,0.095 l -0.081,0.362 a 0.156,0.156 0 0 1 -0.065,0.09 0.055,0.055 0 0 1 -0.035,0 0.6,0.6 0 0 0 -0.436,0.072 0.549,0.549 0 0 0 -0.331,0.486 c 0,0.185 0.098,0.242 0.425,0.248 0.438,0 0.627,0.199 0.632,0.639 a 1.568,1.568 0 0 1 -0.576,1.185 z m 2.481,-0.68 a 0.094,0.094 0 0 1 -0.036,0.092 l -1.198,0.727 a 0.034,0.034 0 0 1 -0.04,0.003 0.035,0.035 0 0 1 -0.016,-0.037 v -0.31 a 0.086,0.086 0 0 1 0.055,-0.076 l 1.179,-0.706 a 0.035,0.035 0 0 1 0.056,0.035 v 0.273 z m 0.827,-6.914 -4.482,2.768 c -0.559,0.331 -0.97,0.693 -0.97,1.367 v 5.52 c 0,0.404 0.165,0.662 0.413,0.741 a 1.465,1.465 0 0 1 -0.248,0.025 c -0.264,0 -0.522,-0.072 -0.748,-0.207 l -4.737,-2.811 a 1.558,1.558 0 0 1 -0.75,-1.338 v -5.624 a 1.558,1.558 0 0 1 0.75,-1.34 l 4.738,-2.81 a 1.46,1.46 0 0 1 1.489,0 l 4.736,2.812 a 1.548,1.548 0 0 1 0.728,1.083 c -0.154,-0.334 -0.508,-0.427 -0.92,-0.185 h 0.002 z"
           id="path2107"
           style="fill:#ffffff" />
        <g
           id="g2141"
           transform="matrix(-0.01274325,-0.02676591,-0.02972942,0.01303489,54.336528,27.37192)"
           style="fill:url(#linearGradient2275);fill-opacity:1;stroke:#ffffff;stroke-width:10.6727;stroke-linecap:round;stroke-linejoin:round;stroke-dasharray:none;stroke-opacity:1">
          <path
             d="M 396.776,195.483 C 464.07,136.566 453.733,13.375 441.305,0.931 c -6.945,-6.947 -23.243,26.361 -66.664,53.077 -1.555,18.821 -4.432,36.334 -8.31,52.832 -2.134,-14.166 -4.606,-28.669 -7.492,-43.596 -19.052,10.279 -41.701,19.49 -66.417,27.677 -10.352,28.049 -23.194,53.601 -36.391,78.796 -0.505,-22.046 -1.124,-44.19 -2.224,-66.83 -39.089,11.477 -78.837,22.351 -109.003,36.739 -20.457,9.707 -36.002,27.379 -43.057,48.886 -6.772,20.664 -12.097,42.776 -15.197,67.111 -4.705,-23.177 -8.401,-45.338 -11.321,-66.73 -50.647,53.441 -38.037,141.689 -14.024,177.312 0.826,22.425 5.177,40.237 8.235,48.183 7.732,25.411 16.811,47.953 35.59,76.249 0,-0.025 -10.742,-80.93 -10.742,-80.93 -1.231,-6.193 -1.919,-16.115 -1.778,-28.363 23.004,-6.532 52.823,-40.749 107.051,-68.136 -23.55,-5.069 -46.322,-9.368 -68.095,-12.661 24.94,-5.821 52.683,-8.847 82.121,-10.169 22.681,-1.009 45.172,-6.533 65.712,-16.258 34.945,-16.72 73.404,-38.054 104.19,-65.697 -15.38,-4.093 -30.952,-8.344 -46.629,-12.735 20.449,0.408 40.517,0.44 59.916,-0.205 z"
             id="path2109"
             style="fill:url(#linearGradient5446);fill-opacity:1;stroke:#ffffff;stroke-width:10.6727;stroke-linecap:round;stroke-linejoin:round;stroke-dasharray:none;stroke-opacity:1" />
          <g
             id="g2111"
             style="fill:url(#linearGradient5448);fill-opacity:1;stroke:#ffffff;stroke-width:10.6727;stroke-linecap:round;stroke-linejoin:round;stroke-dasharray:none;stroke-opacity:1" />
          <g
             id="g2113"
             style="fill:url(#linearGradient5450);fill-opacity:1;stroke:#ffffff;stroke-width:10.6727;stroke-linecap:round;stroke-linejoin:round;stroke-dasharray:none;stroke-opacity:1" />
          <g
             id="g2115"
             style="fill:url(#linearGradient5452);fill-opacity:1;stroke:#ffffff;stroke-width:10.6727;stroke-linecap:round;stroke-linejoin:round;stroke-dasharray:none;stroke-opacity:1" />
          <g
             id="g2117"
             style="fill:url(#linearGradient5454);fill-opacity:1;stroke:#ffffff;stroke-width:10.6727;stroke-linecap:round;stroke-linejoin:round;stroke-dasharray:none;stroke-opacity:1" />
          <g
             id="g2119"
             style="fill:url(#linearGradient5456);fill-opacity:1;stroke:#ffffff;stroke-width:10.6727;stroke-linecap:round;stroke-linejoin:round;stroke-dasharray:none;stroke-opacity:1" />
          <g
             id="g2121"
             style="fill:url(#linearGradient5458);fill-opacity:1;stroke:#ffffff;stroke-width:10.6727;stroke-linecap:round;stroke-linejoin:round;stroke-dasharray:none;stroke-opacity:1" />
          <g
             id="g2123"
             style="fill:url(#linearGradient5460);fill-opacity:1;stroke:#ffffff;stroke-width:10.6727;stroke-linecap:round;stroke-linejoin:round;stroke-dasharray:none;stroke-opacity:1" />
          <g
             id="g2125"
             style="fill:url(#linearGradient5462);fill-opacity:1;stroke:#ffffff;stroke-width:10.6727;stroke-linecap:round;stroke-linejoin:round;stroke-dasharray:none;stroke-opacity:1" />
          <g
             id="g2127"
             style="fill:url(#linearGradient5464);fill-opacity:1;stroke:#ffffff;stroke-width:10.6727;stroke-linecap:round;stroke-linejoin:round;stroke-dasharray:none;stroke-opacity:1" />
          <g
             id="g2129"
             style="fill:url(#linearGradient5466);fill-opacity:1;stroke:#ffffff;stroke-width:10.6727;stroke-linecap:round;stroke-linejoin:round;stroke-dasharray:none;stroke-opacity:1" />
          <g
             id="g2131"
             style="fill:url(#linearGradient5468);fill-opacity:1;stroke:#ffffff;stroke-width:10.6727;stroke-linecap:round;stroke-linejoin:round;stroke-dasharray:none;stroke-opacity:1" />
          <g
             id="g2133"
             style="fill:url(#linearGradient5470);fill-opacity:1;stroke:#ffffff;stroke-width:10.6727;stroke-linecap:round;stroke-linejoin:round;stroke-dasharray:none;stroke-opacity:1" />
          <g
             id="g2135"
             style="fill:url(#linearGradient5472);fill-opacity:1;stroke:#ffffff;stroke-width:10.6727;stroke-linecap:round;stroke-linejoin:round;stroke-dasharray:none;stroke-opacity:1" />
          <g
             id="g2137"
             style="fill:url(#linearGradient5474);fill-opacity:1;stroke:#ffffff;stroke-width:10.6727;stroke-linecap:round;stroke-linejoin:round;stroke-dasharray:none;stroke-opacity:1" />
          <g
             id="g2139"
             style="fill:url(#linearGradient5476);fill-opacity:1;stroke:#ffffff;stroke-width:10.6727;stroke-linecap:round;stroke-linejoin:round;stroke-dasharray:none;stroke-opacity:1" />
        </g>
      </g>
      <g
         id="g2151"
         transform="matrix(0.26458333,0,0,0.26458333,586.98893,233.31222)">
        <text
           xml:space="preserve"
           style="font-weight:bold;font-size:15.6148px;line-height:1.25;font-family:sans-serif;-inkscape-font-specification:'sans-serif Bold';stroke-width:0.39037"
           x="-51.506149"
           y="34.099648"
           id="text2147"><tspan
             sodipodi:role="line"
             id="tspan2145"
             x="-51.506149"
             y="34.099648"
             style="font-style:normal;font-variant:normal;font-weight:normal;font-stretch:normal;font-family:'Avenir Next';-inkscape-font-specification:'Avenir Next weight=275';fill:#ffffff;stroke-width:0.39037">filerecords</tspan></text>
        <path
           style="fill:none;stroke:#ffffff;stroke-width:0.4;stroke-linecap:butt;stroke-linejoin:miter;stroke-dasharray:none;stroke-opacity:1"
           d="M -53.004175,36.89796 H 24.677223"
           id="path2149" />
      </g>
    </g>
  </g>
</svg>
